<?xml version="1.0" encoding="UTF-8"?>
<svg id="Layer_1" data-name="Layer 1" xmlns="http://www.w3.org/2000/svg" viewBox="0 0 1279 267">
  <defs>
    <style>
      .cls-1 {
        fill: #fff;
      }

      .cls-2 {
        fill: #455f6f;
      }

      .cls-3 {
        fill: #d0103a;
      }
    </style>
  </defs>
  <path class="cls-3" d="M0,147.54v112.91s0,3.65,2.58,1.07c23.57-23.57,60.86-59.29,67.76-66.2,0,0,2.58-2.58,6.23-2.58H225.67s3.65,0,3.65-3.65V3.9s0-3.65-3.65-3.65H3.65S0,.25,0,3.9V147.54Z"/>
  <rect class="cls-1" x="45.66" y="55.33" width="27.93" height="128.92"/>
  <path class="cls-2" d="M59.5,47.63c-9.41,0-17.06-7.65-17.06-17.06s7.81-17.31,17.06-17.31,17.31,7.76,17.31,17.31-7.76,17.06-17.31,17.06Z"/>
  <path class="cls-1" d="M154.55,187.23c-34.87,0-55.61-15.13-66.87-27.82l-2.58-2.91,17.96-23.09,3.74,4.17c7.36,8.2,23.45,21.96,48.49,21.96s34.18-12.28,34.18-23.78c0-14.91-14.93-20.04-39.51-26.71-25.96-7.05-58.27-15.83-58.27-51.25,0-29.25,25.81-50.47,61.37-50.47,25.76,0,46.64,8.24,62.05,24.48l2.85,3-18.43,22.49-3.65-4.01c-10.71-11.78-26.44-18.27-44.3-18.27s-29.23,8.86-29.23,21.55c0,11.79,13.69,16.36,36.24,22.48,27.41,7.44,61.53,16.71,61.53,54.99,0,25.72-17.23,53.2-65.58,53.2Z"/>
  <path class="cls-3" d="M1279.1,10.87c-.24-.1-.51-.05-.69,.13l-13.69,13.33h-44.23c-.17,0-.33,.07-.45,.18l-10.94,10.94c-.12,.12-.19,.28-.19,.44v58.36c0,.17,.07,.34,.19,.45,.11,.12,.28,.18,.45,.18h59.35c.17,0,.33-.06,.45-.18l9.95-9.95c.13-.12,.19-.29,.19-.46V11.45c0-.25-.15-.48-.39-.58m-14.29,68.49c0,.09-.07,.16-.17,.16h-28.33c-.81,0-.84,.03-1.39,.58l-10.73,10.79c-.48,.48-1.14,.6-1.14-.45V38.83c0-.09,.07-.17,.17-.17h41.43c.1,0,.17,.07,.17,.17v40.53Z"/>
  <g>
    <path class="cls-2" d="M301.95,54.03c38.37,0,60.97,29.96,60.97,68.07v4.99h-102.76c1.58,23.92,18.4,43.89,45.73,43.89,14.46,0,29.17-5.78,39.16-16.03l9.46,12.88c-12.62,12.61-29.7,19.45-50.46,19.45-37.59,0-64.65-27.07-64.65-66.76,0-36.79,26.28-66.5,62.55-66.5Zm-41.79,58.61h83.31c-.26-18.93-12.88-42.32-41.79-42.32-27.07,0-40.47,22.87-41.53,42.32Z"/>
    <path class="cls-2" d="M470.94,165.21c-9.46,12.88-24.97,22.08-42.84,22.08-33.12,0-56.51-25.23-56.51-66.49s23.13-66.76,56.51-66.76c17.08,0,32.59,8.41,42.84,22.34V8.82h19.71V184.13h-19.71v-18.92Zm0-73.07c-7.1-11.04-22.34-20.5-38.11-20.5-25.5,0-40.74,21.02-40.74,49.15s15.24,48.88,40.74,48.88c15.77,0,31.01-8.94,38.11-19.97v-57.56Z"/>
    <path class="cls-2" d="M590.78,166.26c-9.72,11.04-26.28,21.02-45.21,21.02-26.55,0-40.47-12.88-40.47-40.47V57.18h19.71v83.58c0,22.34,11.3,28.91,28.38,28.91,15.51,0,30.22-8.94,37.58-19.19V57.18h19.71v126.94h-19.71v-17.87Z"/>
    <path class="cls-2" d="M684.87,54.03c23.13,0,36.8,9.46,46.52,22.08l-13.14,12.09c-8.41-11.57-19.19-16.56-32.33-16.56-27.07,0-43.89,20.76-43.89,48.88s16.82,49.15,43.89,49.15c13.14,0,23.92-5.26,32.33-16.56l13.14,12.09c-9.72,12.61-23.39,22.08-46.52,22.08-37.85,0-63.34-28.91-63.34-66.76s25.49-66.5,63.34-66.5Z"/>
    <path class="cls-2" d="M822.59,169.67c-10.51,11.56-24.97,17.61-42.05,17.61-21.55,0-44.42-14.46-44.42-42.05s22.87-41.79,44.42-41.79c17.35,0,31.8,5.52,42.05,17.35v-22.87c0-17.08-13.67-26.81-32.07-26.81-15.25,0-27.6,5.52-38.9,17.61l-9.2-13.67c13.67-14.19,29.96-21.03,50.73-21.03,26.81,0,49.15,12.09,49.15,42.84v87.26h-19.71v-14.46Zm0-36.27c-7.62-10.51-21.03-15.77-34.96-15.77-18.4,0-31.28,11.57-31.28,27.86s12.88,27.6,31.28,27.6c13.93,0,27.34-5.26,34.96-15.77v-23.92Z"/>
    <path class="cls-2" d="M865.95,157.58V74.53h-21.02v-17.35h21.02V22.49h19.71V57.18h25.76v17.35h-25.76v78.85c0,9.46,4.2,16.29,12.88,16.29,5.52,0,10.77-2.37,13.4-5.26l5.78,14.72c-4.99,4.73-12.09,8.15-23.65,8.15-18.66,0-28.13-10.78-28.13-29.7Z"/>
    <path class="cls-2" d="M924.03,22.49c0-7.36,6.05-13.14,13.14-13.14s13.4,5.78,13.4,13.14-6.04,13.4-13.4,13.4-13.14-6.05-13.14-13.4Zm3.42,34.69h19.71v126.94h-19.71V57.18Z"/>
    <path class="cls-2" d="M958.2,120.52c0-36.79,24.18-66.5,62.81-66.5s62.82,29.7,62.82,66.5-24.18,66.76-62.82,66.76-62.81-29.96-62.81-66.76Zm104.87,0c0-25.76-14.98-48.88-42.05-48.88s-42.31,23.13-42.31,48.88,15.25,49.15,42.31,49.15,42.05-23.13,42.05-49.15Z"/>
    <path class="cls-2" d="M1180.54,101.08c0-22.34-11.3-29.44-28.38-29.44-15.51,0-30.23,9.46-37.59,19.71v92.78h-19.71V57.18h19.71v18.4c8.94-10.51,26.28-21.55,45.21-21.55,26.54,0,40.47,13.4,40.47,41v89.1h-19.71V101.08Z"/>
  </g>
</svg>